# xmcd
#
# Track frame offsets:
#	182
#	12480
#	24677
#	36775
#	55842
#	68620
#	80252
#	94765
#	112870
#	127610
#	142120
#	154872
#	168397
#	183582
#	195337
#	210102
#	229127
#	243270
#	257907
#	271645
#	288062
#	303410
#
# Disc length: 4229
#
# Revision: 5
# Processed by: cddbd v1.5.1PL0 Copyright (c) Steve Scherf et al.
# Submitted via: CDex 1.50
# Normalized: r4:DSETVAR2,TDELIM( - )
#
DISCID=19108316
DTITLE=Various Artist - Country Women
DYEAR=1993
DGENRE=Country
TTITLE0=Patsy Cline - Crazy
TTITLE1=Tammy Wynette - Stand By Your Man
TTITLE2=Dolly Parton - Jolene
TTITLE3=Bobby Gentry - Ode To Billy Jo
TTITLE4=Billy Joe Spears - 57 Chevrolet
TTITLE5=Crystal Gayle - Don't It Make My Brown Eyes Blue
TTITLE6=Lynn Anderson - A Little Bit More
TTITLE7=Pam Tillis - Maybe It Was Memphis
TTITLE8=Jeanne Pruett - Satin Sheets
TTITLE9=Jeannie C Riley - Harper Valley P.T.A.
TTITLE10=Nanci Griffiths - The Wing And The Wheel
TTITLE11=Loretta Lynn - Coalminers Daughter
TTITLE12=Mary Chapin Carpenter - Down At The Twist And Shout
TTITLE13=Patsy Cline - Sweet Dreams
TTITLE14=Roseanne Cash - Seven Year Ache
TTITLE15=K.T. Oslin - 80's Ladies
TTITLE16=Patty Loveless - Wicked Ways
TTITLE17=Carlene Carter - Every Little Thing
TTITLE18=Tanya Tucker - If Your Heart Ain't Busy Tonight
TTITLE19=Reba McIntyre - Only In My Mind
TTITLE20=Kelly Willis - Whatever Way The Wind Blows
TTITLE21=Dolly Parton - I Will Always Love You
EXTD=YEAR: 1993
EXTT0=
EXTT1=
EXTT2=
EXTT3=
EXTT4=
EXTT5=
EXTT6=
EXTT7=
EXTT8=
EXTT9=
EXTT10=
EXTT11=
EXTT12=
EXTT13=
EXTT14=
EXTT15=
EXTT16=
EXTT17=
EXTT18=
EXTT19=
EXTT20=
EXTT21=
PLAYORDER=
